<svg width="1920" height="1080" viewBox="0 0 1920 1080" fill="none" xmlns="http://www.w3.org/2000/svg">
<g clip-path="url(#clip0_1_1387)">
<rect width="1920" height="1080" fill="white"/>
<g filter="url(#filter0_f_1_1387)">
<path d="M1314.99 -223.038C1431.72 -186.144 1450.83 -293.449 1547.84 -298.878C1892.44 -318.168 1852.25 420.379 1492.1 496.866C1151.36 569.229 870.411 -67.3414 870.411 -67.3414C870.411 -67.3414 820.373 -233.592 892.501 -291.739C957.594 -344.215 1034.72 -333.771 1117.57 -304.924C1183.03 -282.134 1248.8 -243.956 1314.99 -223.038Z" fill="#164194" fill-opacity="0.3"/>
</g>
<g filter="url(#filter1_f_1_1387)">
<path d="M1607.45 669.446C1779.28 723.771 1807.42 565.746 1950.21 557.743C2457.47 529.313 2398.26 1616.95 1868.11 1729.61C1366.53 1836.2 953.025 898.765 953.025 898.765C953.025 898.765 879.381 653.937 985.556 568.301C1081.38 491.017 1194.9 506.392 1316.86 548.868C1413.21 582.426 1510.03 638.645 1607.45 669.446Z" fill="#164194" fill-opacity="0.3"/>
</g>
<g filter="url(#filter2_f_1_1387)">
<ellipse cx="921.221" cy="984.697" rx="567" ry="509.5" transform="rotate(5.62207 921.221 984.697)" fill="#164194" fill-opacity="0.3"/>
</g>
<g filter="url(#filter3_f_1_1387)">
<path d="M-165.677 137.87C-231.771 273.373 -265.181 378.301 -203.064 517.666C-81.9588 789.38 442.666 838.973 618.542 598.545C757.551 408.516 599.572 229.233 492.46 18.7357C445.198 -74.1454 437.879 -148.389 344.774 -206.852C136.43 -337.677 -65.1147 -68.3008 -165.677 137.87Z" fill="#E84910" fill-opacity="0.3"/>
</g>
<g filter="url(#filter4_f_1_1387)">
<path d="M1620.55 1073.63C1727.61 1232.4 1821.81 1335.8 2014.58 1355.95C2390.41 1395.24 2778.28 849.467 2625.54 503.259C2504.82 229.623 2207.24 289.603 1907.64 273.788C1775.44 266.81 1689.12 227.714 1565.66 293.036C1289.38 439.208 1457.65 832.044 1620.55 1073.63Z" fill="#E84910" fill-opacity="0.3"/>
</g>
<g filter="url(#filter5_f_1_1387)">
<ellipse cx="59.943" cy="1241.25" rx="474.667" ry="426.6" transform="rotate(5.62207 59.943 1241.25)" fill="#E84910" fill-opacity="0.3"/>
</g>
</g>
<defs>
<filter id="filter0_f_1_1387" x="353.512" y="-828.836" width="1931.96" height="1831.44" filterUnits="userSpaceOnUse" color-interpolation-filters="sRGB">
<feFlood flood-opacity="0" result="BackgroundImageFix"/>
<feBlend mode="normal" in="SourceGraphic" in2="BackgroundImageFix" result="shape"/>
<feGaussianBlur stdDeviation="250" result="effect1_foregroundBlur_1_1387"/>
</filter>
<filter id="filter1_f_1_1387" x="428.157" y="13.6614" width="2371.83" height="2224.4" filterUnits="userSpaceOnUse" color-interpolation-filters="sRGB">
<feFlood flood-opacity="0" result="BackgroundImageFix"/>
<feBlend mode="normal" in="SourceGraphic" in2="BackgroundImageFix" result="shape"/>
<feGaussianBlur stdDeviation="250" result="effect1_foregroundBlur_1_1387"/>
</filter>
<filter id="filter2_f_1_1387" x="-145.29" y="-25.4297" width="2133.02" height="2020.25" filterUnits="userSpaceOnUse" color-interpolation-filters="sRGB">
<feFlood flood-opacity="0" result="BackgroundImageFix"/>
<feBlend mode="normal" in="SourceGraphic" in2="BackgroundImageFix" result="shape"/>
<feGaussianBlur stdDeviation="250" result="effect1_foregroundBlur_1_1387"/>
</filter>
<filter id="filter3_f_1_1387" x="-735.964" y="-741.308" width="1909.06" height="1994.57" filterUnits="userSpaceOnUse" color-interpolation-filters="sRGB">
<feFlood flood-opacity="0" result="BackgroundImageFix"/>
<feBlend mode="normal" in="SourceGraphic" in2="BackgroundImageFix" result="shape"/>
<feGaussianBlur stdDeviation="250" result="effect1_foregroundBlur_1_1387"/>
</filter>
<filter id="filter4_f_1_1387" x="918.557" y="-244.174" width="2241.1" height="2102.14" filterUnits="userSpaceOnUse" color-interpolation-filters="sRGB">
<feFlood flood-opacity="0" result="BackgroundImageFix"/>
<feBlend mode="normal" in="SourceGraphic" in2="BackgroundImageFix" result="shape"/>
<feGaussianBlur stdDeviation="250" result="effect1_foregroundBlur_1_1387"/>
</filter>
<filter id="filter5_f_1_1387" x="-914.314" y="314.131" width="1948.52" height="1854.25" filterUnits="userSpaceOnUse" color-interpolation-filters="sRGB">
<feFlood flood-opacity="0" result="BackgroundImageFix"/>
<feBlend mode="normal" in="SourceGraphic" in2="BackgroundImageFix" result="shape"/>
<feGaussianBlur stdDeviation="250" result="effect1_foregroundBlur_1_1387"/>
</filter>
<clipPath id="clip0_1_1387">
<rect width="1920" height="1080" fill="white"/>
</clipPath>
</defs>
</svg>
