<svg width="100" height="28" viewBox="0 0 100 28" fill="none" xmlns="http://www.w3.org/2000/svg">
<g clip-path="url(#clip0_2041_3870)">
<path d="M21.0522 2.39685L20.2764 6.69358C20.2004 7.06786 19.9266 7.35232 19.5463 7.35232H19.4702C18.0708 7.24752 14.1158 6.90318 11.6059 6.90318C10.6324 6.90318 9.61322 7.21757 9.61322 8.35538C9.61322 8.83446 9.96308 9.14886 11.1496 9.83753L15.4088 12.3078C17.9187 13.76 18.9074 15.6464 18.9074 18.0567C18.9074 24.4943 13.4161 27.1143 7.4684 27.1143C4.60865 27.1143 2.35736 26.74 0.577621 26.216C0.258181 26.1112 -0.015625 25.9465 -0.015625 25.6321V25.5273L0.714524 21.2905C0.790581 20.9162 1.09481 20.6018 1.52073 20.6018H1.59679C3.02666 20.7366 6.73825 21.1108 8.59405 21.1108C9.9935 21.1108 11.1496 20.6318 11.1496 19.0748C11.1496 18.5508 10.7997 18.1765 9.78054 17.5327L5.27796 14.6133C3.25483 13.3108 2.26609 11.0652 2.26609 8.93926C2.26609 2.74119 7.20981 0.884766 12.762 0.884766C15.5305 0.884766 19.166 1.3339 20.535 1.73812C20.8088 1.84292 21.0674 1.97766 21.0674 2.29206V2.39685H21.0522Z" fill="white"/>
<path d="M40.9182 1.99263L40.188 6.19953C40.112 6.57381 39.7317 6.88821 39.3514 6.88821H32.2933C31.0307 6.88821 30.544 7.3074 30.3006 8.60989L29.8442 11.1251H38.4539C38.8038 11.1251 39.0472 11.3646 39.0472 11.7089V11.8137L38.317 15.8709C38.241 16.2452 37.8911 16.5596 37.5108 16.5596H28.9163L28.3839 19.4191C28.3535 19.6886 28.3231 19.8982 28.3231 20.1078C28.3231 20.9012 28.749 21.1408 29.753 21.1408H36.8111C37.1609 21.1408 37.4043 21.3803 37.4043 21.7246V21.8294L36.6285 26.0214C36.5525 26.4406 36.2787 26.6352 35.8223 26.71C34.4533 26.8747 32.3237 27.1292 28.9315 27.1292C24.8397 27.1292 21.0977 25.677 21.0977 21.1707C21.0977 20.6168 21.1585 20.0329 21.2802 19.4191L23.1968 8.60989C24.4138 1.6483 28.6121 0.884766 33.5406 0.884766C36.9328 0.884766 39.0624 1.1243 40.3553 1.30396C40.7356 1.3339 40.9182 1.51356 40.9182 1.85789V1.99263Z" fill="white"/>
<path d="M65.7153 1.91784L61.517 25.5274C61.3801 26.2161 60.6803 26.7999 59.9806 26.7999H55.6454C55.0217 26.7999 54.6262 26.5305 54.3524 25.8717L49.1805 14.3439C49.074 14.1044 48.9675 14.0744 48.8611 14.0744C48.7546 14.0744 48.6785 14.1343 48.6481 14.3888L46.5489 26.1262C46.4881 26.5005 46.0926 26.8149 45.7123 26.8149H40.4643C40.1145 26.8149 39.8711 26.5754 39.8711 26.231V26.1262L44.0695 2.51669C44.2064 1.82802 44.9061 1.24414 45.6058 1.24414H49.865C50.5343 1.24414 50.8081 1.66333 51.0819 2.24721L56.3907 14.1194C56.4972 14.3589 56.5276 14.4338 56.6341 14.4338C56.7406 14.4338 56.8471 14.4038 56.8775 14.1194L59.0527 1.93281C59.1136 1.55854 59.5091 1.24414 59.8893 1.24414H65.1373C65.4872 1.24414 65.7001 1.48368 65.7001 1.79807V1.93281L65.7153 1.91784Z" fill="white"/>
<path d="M85.611 26.8002H79.6634C79.3135 26.8002 79.0701 26.4858 79.0701 26.1415L78.9636 21.3657H72.7422L70.8864 26.1415C70.7495 26.4858 70.43 26.8002 70.0802 26.8002H63.8891C63.5697 26.8002 63.4023 26.6355 63.4023 26.3511C63.4023 26.2912 63.4328 26.1864 63.4784 26.0816L71.9512 5.01714C73.305 1.60371 76.0583 0.915039 79.3896 0.915039C82.7209 0.915039 85.2308 1.60371 85.3677 5.01714L86.2803 26.0816V26.1115C86.2803 26.4858 86.0065 26.8002 85.611 26.8002ZM78.7963 7.11311C78.7963 6.79871 78.7963 6.63403 78.4769 6.63403C78.1574 6.63403 78.127 6.81368 78.0205 7.11311L74.7349 15.8563H78.9332L78.7963 7.11311Z" fill="white"/>
<path d="M99.9833 1.88822C100.059 1.43909 99.7703 1.22949 99.39 1.22949H93.6553C93.2751 1.22949 92.9252 1.49897 92.8491 1.88822L91.7539 7.99647L99.527 4.40338L99.9833 1.87325V1.88822Z" fill="#E84910"/>
<path d="M91.2685 10.7353L88.5152 26.1257C88.4391 26.47 88.6521 26.8144 89.078 26.8144H94.8127C95.3451 26.8144 95.5885 26.5 95.6494 26.1257L99.0415 7.15723L91.2685 10.7503V10.7353Z" fill="white"/>
</g>
<defs>
<clipPath id="clip0_2041_3870">
<rect width="100" height="26.2295" fill="white" transform="translate(0 0.884766)"/>
</clipPath>
</defs>
</svg>
