<svg width="1920" height="1080" viewBox="0 0 1920 1080" fill="none" xmlns="http://www.w3.org/2000/svg">
<g clip-path="url(#clip0_1015_13508)">
<rect width="1920" height="1080" fill="#22272A"/>
<g filter="url(#filter0_f_1015_13508)">
<path d="M1314.99 -223.038C1431.72 -186.144 1450.83 -293.448 1547.84 -298.878C1892.45 -318.168 1852.25 420.379 1492.1 496.866C1151.36 569.229 870.412 -67.3413 870.412 -67.3413C870.412 -67.3413 820.374 -233.591 892.502 -291.739C957.595 -344.215 1034.72 -333.771 1117.57 -304.924C1183.03 -282.134 1248.8 -243.956 1314.99 -223.038Z" fill="#164194" fill-opacity="0.3"/>
</g>
<g filter="url(#filter1_f_1015_13508)">
<path d="M1607.45 669.446C1779.28 723.771 1807.42 565.746 1950.21 557.743C2457.47 529.313 2398.26 1616.95 1868.11 1729.61C1366.54 1836.2 953.027 898.765 953.027 898.765C953.027 898.765 879.382 653.938 985.558 568.301C1081.38 491.017 1194.9 506.392 1316.86 548.868C1413.21 582.426 1510.03 638.646 1607.45 669.446Z" fill="#164194" fill-opacity="0.3"/>
</g>
<g filter="url(#filter2_f_1015_13508)">
<ellipse cx="921.222" cy="984.697" rx="567" ry="509.5" transform="rotate(5.62207 921.222 984.697)" fill="#164194" fill-opacity="0.3"/>
</g>
<g filter="url(#filter3_f_1015_13508)">
<path d="M-165.678 137.871C-231.772 273.374 -265.182 378.301 -203.065 517.667C-81.9598 789.38 442.665 838.973 618.541 598.545C757.55 408.516 599.571 229.233 492.459 18.7359C445.197 -74.1453 437.878 -148.389 344.773 -206.852C136.429 -337.677 -65.1157 -68.3007 -165.678 137.871Z" fill="#E84910" fill-opacity="0.3"/>
</g>
<g filter="url(#filter4_f_1015_13508)">
<path d="M1620.55 1073.63C1727.61 1232.4 1821.81 1335.8 2014.58 1355.95C2390.41 1395.25 2778.28 849.467 2625.54 503.26C2504.82 229.623 2207.24 289.603 1907.64 273.789C1775.44 266.81 1689.12 227.715 1565.66 293.037C1289.38 439.209 1457.65 832.045 1620.55 1073.63Z" fill="#E84910" fill-opacity="0.3"/>
</g>
<g filter="url(#filter5_f_1015_13508)">
<ellipse cx="59.9425" cy="1241.26" rx="474.667" ry="426.6" transform="rotate(5.62207 59.9425 1241.26)" fill="#E84910" fill-opacity="0.3"/>
</g>
</g>
<defs>
<filter id="filter0_f_1015_13508" x="353.512" y="-828.836" width="1931.96" height="1831.43" filterUnits="userSpaceOnUse" color-interpolation-filters="sRGB">
<feFlood flood-opacity="0" result="BackgroundImageFix"/>
<feBlend mode="normal" in="SourceGraphic" in2="BackgroundImageFix" result="shape"/>
<feGaussianBlur stdDeviation="250" result="effect1_foregroundBlur_1015_13508"/>
</filter>
<filter id="filter1_f_1015_13508" x="428.16" y="13.6621" width="2371.83" height="2224.4" filterUnits="userSpaceOnUse" color-interpolation-filters="sRGB">
<feFlood flood-opacity="0" result="BackgroundImageFix"/>
<feBlend mode="normal" in="SourceGraphic" in2="BackgroundImageFix" result="shape"/>
<feGaussianBlur stdDeviation="250" result="effect1_foregroundBlur_1015_13508"/>
</filter>
<filter id="filter2_f_1015_13508" x="-145.289" y="-25.4297" width="2133.02" height="2020.25" filterUnits="userSpaceOnUse" color-interpolation-filters="sRGB">
<feFlood flood-opacity="0" result="BackgroundImageFix"/>
<feBlend mode="normal" in="SourceGraphic" in2="BackgroundImageFix" result="shape"/>
<feGaussianBlur stdDeviation="250" result="effect1_foregroundBlur_1015_13508"/>
</filter>
<filter id="filter3_f_1015_13508" x="-735.965" y="-741.308" width="1909.06" height="1994.57" filterUnits="userSpaceOnUse" color-interpolation-filters="sRGB">
<feFlood flood-opacity="0" result="BackgroundImageFix"/>
<feBlend mode="normal" in="SourceGraphic" in2="BackgroundImageFix" result="shape"/>
<feGaussianBlur stdDeviation="250" result="effect1_foregroundBlur_1015_13508"/>
</filter>
<filter id="filter4_f_1015_13508" x="918.559" y="-244.173" width="2241.11" height="2102.14" filterUnits="userSpaceOnUse" color-interpolation-filters="sRGB">
<feFlood flood-opacity="0" result="BackgroundImageFix"/>
<feBlend mode="normal" in="SourceGraphic" in2="BackgroundImageFix" result="shape"/>
<feGaussianBlur stdDeviation="250" result="effect1_foregroundBlur_1015_13508"/>
</filter>
<filter id="filter5_f_1015_13508" x="-914.316" y="314.132" width="1948.52" height="1854.25" filterUnits="userSpaceOnUse" color-interpolation-filters="sRGB">
<feFlood flood-opacity="0" result="BackgroundImageFix"/>
<feBlend mode="normal" in="SourceGraphic" in2="BackgroundImageFix" result="shape"/>
<feGaussianBlur stdDeviation="250" result="effect1_foregroundBlur_1015_13508"/>
</filter>
<clipPath id="clip0_1015_13508">
<rect width="1920" height="1080" fill="white"/>
</clipPath>
</defs>
</svg>
