<svg width="100" height="28" viewBox="0 0 100 28" fill="none" xmlns="http://www.w3.org/2000/svg">
<g clip-path="url(#clip0_1015_13510)">
<path d="M21.0522 2.39734L20.2764 6.69407C20.2004 7.06835 19.9266 7.3528 19.5463 7.3528H19.4702C18.0708 7.24801 14.1158 6.90367 11.6059 6.90367C10.6324 6.90367 9.61322 7.21806 9.61322 8.35587C9.61322 8.83495 9.96308 9.14935 11.1496 9.83802L15.4088 12.3083C17.9187 13.7605 18.9074 15.6468 18.9074 18.0572C18.9074 24.4948 13.4161 27.1148 7.4684 27.1148C4.60865 27.1148 2.35736 26.7405 0.577621 26.2165C0.258181 26.1117 -0.015625 25.947 -0.015625 25.6326V25.5278L0.714524 21.291C0.790581 20.9167 1.09481 20.6023 1.52073 20.6023H1.59679C3.02666 20.737 6.73825 21.1113 8.59405 21.1113C9.9935 21.1113 11.1496 20.6322 11.1496 19.0752C11.1496 18.5512 10.7997 18.177 9.78054 17.5332L5.27796 14.6138C3.25483 13.3113 2.26609 11.0657 2.26609 8.93975C2.26609 2.74168 7.20981 0.885254 12.762 0.885254C15.5305 0.885254 19.166 1.33439 20.535 1.73861C20.8088 1.84341 21.0674 1.97815 21.0674 2.29254V2.39734H21.0522Z" fill="#164194"/>
<path d="M40.9182 1.99312L40.188 6.20002C40.112 6.5743 39.7317 6.8887 39.3514 6.8887H32.2933C31.0307 6.8887 30.544 7.30789 30.3006 8.61038L29.8442 11.1255H38.4539C38.8038 11.1255 39.0472 11.3651 39.0472 11.7094V11.8142L38.317 15.8714C38.241 16.2457 37.8911 16.5601 37.5108 16.5601H28.9163L28.3839 19.4196C28.3535 19.6891 28.3231 19.8987 28.3231 20.1082C28.3231 20.9017 28.749 21.1413 29.753 21.1413H36.8111C37.1609 21.1413 37.4043 21.3808 37.4043 21.7251V21.8299L36.6285 26.0219C36.5525 26.4411 36.2787 26.6357 35.8223 26.7105C34.4533 26.8752 32.3237 27.1297 28.9315 27.1297C24.8397 27.1297 21.0977 25.6775 21.0977 21.1712C21.0977 20.6173 21.1585 20.0334 21.2802 19.4196L23.1968 8.61038C24.4138 1.64878 28.6121 0.885254 33.5406 0.885254C36.9328 0.885254 39.0624 1.12479 40.3553 1.30445C40.7356 1.33439 40.9182 1.51404 40.9182 1.85838V1.99312Z" fill="#164194"/>
<path d="M65.7153 1.91833L61.517 25.5279C61.3801 26.2166 60.6803 26.8004 59.9806 26.8004H55.6454C55.0217 26.8004 54.6262 26.531 54.3524 25.8722L49.1805 14.3444C49.074 14.1049 48.9675 14.0749 48.8611 14.0749C48.7546 14.0749 48.6785 14.1348 48.6481 14.3893L46.5489 26.1267C46.4881 26.501 46.0926 26.8154 45.7123 26.8154H40.4643C40.1145 26.8154 39.8711 26.5759 39.8711 26.2315V26.1267L44.0695 2.51718C44.2064 1.8285 44.9061 1.24463 45.6058 1.24463H49.865C50.5343 1.24463 50.8081 1.66382 51.0819 2.2477L56.3907 14.1198C56.4972 14.3594 56.5276 14.4342 56.6341 14.4342C56.7406 14.4342 56.8471 14.4043 56.8775 14.1198L59.0527 1.9333C59.1136 1.55902 59.5091 1.24463 59.8893 1.24463H65.1373C65.4872 1.24463 65.7001 1.48417 65.7001 1.79856V1.9333L65.7153 1.91833Z" fill="#164194"/>
<path d="M85.611 26.8002H79.6634C79.3135 26.8002 79.0701 26.4858 79.0701 26.1415L78.9636 21.3657H72.7422L70.8864 26.1415C70.7495 26.4858 70.43 26.8002 70.0802 26.8002H63.8891C63.5697 26.8002 63.4023 26.6355 63.4023 26.3511C63.4023 26.2912 63.4328 26.1864 63.4784 26.0816L71.9512 5.01714C73.305 1.60371 76.0583 0.915039 79.3896 0.915039C82.7209 0.915039 85.2308 1.60371 85.3677 5.01714L86.2803 26.0816V26.1115C86.2803 26.4858 86.0065 26.8002 85.611 26.8002ZM78.7963 7.11311C78.7963 6.79871 78.7963 6.63403 78.4769 6.63403C78.1574 6.63403 78.127 6.81368 78.0205 7.11311L74.7349 15.8563H78.9332L78.7963 7.11311Z" fill="#164194"/>
<path d="M99.9833 1.88822C100.059 1.43909 99.7703 1.22949 99.39 1.22949H93.6553C93.2751 1.22949 92.9252 1.49897 92.8491 1.88822L91.7539 7.99647L99.527 4.40338L99.9833 1.87325V1.88822Z" fill="#E84910"/>
<path d="M91.2685 10.7363L88.5152 26.1267C88.4391 26.471 88.6521 26.8154 89.078 26.8154H94.8127C95.3451 26.8154 95.5885 26.501 95.6494 26.1267L99.0415 7.1582L91.2685 10.7513V10.7363Z" fill="#164194"/>
</g>
<defs>
<clipPath id="clip0_1015_13510">
<rect width="100" height="26.2295" fill="white" transform="translate(0 0.885254)"/>
</clipPath>
</defs>
</svg>
